<?xml version="1.0" encoding="UTF-8" standalone="no"?>
<svg
   height="67px"
   id="Layer_1"
   style="enable-background:new 0 0 67 67;"
   version="1.1"
   viewBox="0 0 67 67"
   width="67px"
   xml:space="preserve"
   sodipodi:docname="twitter_icon.svg"
   inkscape:version="1.1 (ce6663b3b7, 2021-05-25)"
   xmlns:inkscape="http://www.inkscape.org/namespaces/inkscape"
   xmlns:sodipodi="http://sodipodi.sourceforge.net/DTD/sodipodi-0.dtd"
   xmlns="http://www.w3.org/2000/svg"
   xmlns:svg="http://www.w3.org/2000/svg"><defs
     id="defs7" /><sodipodi:namedview
     id="namedview5"
     pagecolor="#505050"
     bordercolor="#eeeeee"
     borderopacity="1"
     inkscape:pageshadow="0"
     inkscape:pageopacity="0"
     inkscape:pagecheckerboard="0"
     showgrid="false"
     inkscape:zoom="7.3880597"
     inkscape:cx="33.5"
     inkscape:cy="33.5"
     inkscape:window-width="1366"
     inkscape:window-height="704"
     inkscape:window-x="0"
     inkscape:window-y="27"
     inkscape:window-maximized="1"
     inkscape:current-layer="Layer_1" /><path
     d="m 38.213024,20.49266 c -2.921785,1.063178 -4.768121,3.805349 -4.558387,6.806343 l 0.07028,1.158004 -1.16916,-0.141683 c -4.253825,-0.543303 -7.97104,-2.386292 -11.127103,-5.483228 l -1.54289,-1.536196 -0.397157,1.134577 c -0.841171,2.529089 -0.303447,5.199862 1.449178,6.995995 0.934882,0.992894 0.724031,1.134576 -0.888026,0.543302 -0.561152,-0.188537 -1.052021,-0.33022 -1.098877,-0.259936 -0.162879,0.166226 0.397157,2.316008 0.841171,3.167218 0.608008,1.182548 1.846336,2.339437 3.202918,3.025538 l 1.145732,0.543302 -1.355467,0.02343 c -1.308611,0 -1.355467,0.02343 -1.214899,0.520991 0.46744,1.536196 2.313776,3.167218 4.370962,3.876747 l 1.449179,0.495331 -1.261755,0.756384 c -1.869765,1.088837 -4.067518,1.702423 -6.265272,1.748163 -1.053137,0.02343 -1.917735,0.118254 -1.917735,0.189653 0,0.235395 2.852618,1.558509 4.511531,2.079499 4.978971,1.536196 10.89394,0.873523 15.335187,-1.749278 3.156063,-1.867533 6.311011,-5.578054 7.784734,-9.171437 0.79543,-1.913273 1.589745,-5.411828 1.589745,-7.088591 0,-1.087721 0.07028,-1.229404 1.378894,-2.52909 0.772003,-0.756384 1.496035,-1.583052 1.636601,-1.819562 0.23428,-0.449591 0.209736,-0.449591 -0.981737,-0.04797 -1.986902,0.709528 -2.268036,0.614702 -1.285184,-0.448476 0.724032,-0.756384 1.589746,-2.12747 1.589746,-2.52909 0,-0.07028 -0.350302,0.04685 -0.748575,0.259938 -0.420585,0.236509 -1.355467,0.591274 -2.057186,0.803239 l -1.261756,0.402736 -1.145732,-0.780927 c -0.631437,-0.425048 -1.518347,-0.898067 -1.986904,-1.039749 -1.192588,-0.330221 -3.016611,-0.283366 -4.09206,0.09483 z M 33.564273,67.0326 c -18.483441,0 -33.46832697,-14.984886 -33.46832697,-33.468327 0,-18.484556 14.98488597,-33.46832697 33.46832697,-33.46832697 18.483441,0 33.468327,14.98377097 33.468327,33.46832697 0,18.483441 -14.984886,33.468327 -33.468327,33.468327 z"
     style="clip-rule:evenodd;fill:#ffffff;fill-rule:evenodd;stroke-width:1.11561"
     id="path2" /></svg>
